<svg width="41" height="41" viewBox="0 0 41 41" fill="none" xmlns="http://www.w3.org/2000/svg">
<path d="M19.7372 11.1926C14.5139 11.8975 10.3681 15.6038 10.7907 21.1155C11.1396 25.2769 14.3006 28.3507 18.398 28.8761C20.7589 29.1841 23.2914 28.9063 25.4577 27.9698C33.205 24.68 33.8325 13.2122 27.7764 7.99832C25.3288 5.85339 22.147 5.1636 18.9562 5.40805C14.0926 5.63872 9.36583 7.68143 6.40311 11.6282C0.229207 19.7323 2.97548 32.6761 12.6583 36.6162C16.87 38.3847 22.1505 38.5438 26.4991 37.1865C32.9881 35.1913 37.4428 29.4667 38.7197 22.9057C39.3891 19.5866 39.274 16.1234 38.3962 12.8313C38.7358 13.622 39.0166 14.4411 39.242 15.2776C41.0811 22.0959 39.1429 29.921 33.9725 34.8149C30.7169 37.9536 26.2666 39.655 21.7914 39.9381C16.3953 40.3212 10.7547 38.9483 6.71156 35.2046C-2.06062 27.2351 -0.695256 11.6513 9.74228 5.75028C12.4939 4.15425 15.682 3.3409 18.8322 3.17778C20.6683 3.07289 22.5185 3.17645 24.2972 3.69513C32.8499 6.05562 36.2793 16.6532 32.2792 24.176C29.756 28.9525 24.7444 31.1312 19.4931 30.8161C16.2455 30.6663 12.985 29.1623 11.1428 26.4134C9.03649 23.3671 8.8756 19.123 10.7845 15.9505C12.6277 12.7993 16.178 11.2082 19.7372 11.1926Z" fill="#ADC9FA"/>
<path d="M19.7372 11.1926C14.5139 11.8975 10.3681 15.6038 10.7907 21.1155C11.1396 25.2769 14.3006 28.3507 18.398 28.8761C20.7589 29.1841 23.2914 28.9063 25.4577 27.9698C33.205 24.68 33.8325 13.2122 27.7764 7.99832C25.3288 5.85339 22.147 5.1636 18.9562 5.40805C14.0926 5.63872 9.36583 7.68143 6.40311 11.6282C0.229207 19.7323 2.97548 32.6761 12.6583 36.6162C16.87 38.3847 22.1505 38.5438 26.4991 37.1865C32.9881 35.1913 37.4428 29.4667 38.7197 22.9057C39.3891 19.5866 39.274 16.1234 38.3962 12.8313C38.7358 13.622 39.0166 14.4411 39.242 15.2776C41.0811 22.0959 39.1429 29.921 33.9725 34.8149C30.7169 37.9536 26.2666 39.655 21.7914 39.9381C16.3953 40.3212 10.7547 38.9483 6.71156 35.2046C-2.06062 27.2351 -0.695256 11.6513 9.74228 5.75028C12.4939 4.15425 15.682 3.3409 18.8322 3.17778C20.6683 3.07289 22.5185 3.17645 24.2972 3.69513C32.8499 6.05562 36.2793 16.6532 32.2792 24.176C29.756 28.9525 24.7444 31.1312 19.4931 30.8161C16.2455 30.6663 12.985 29.1623 11.1428 26.4134C9.03649 23.3671 8.8756 19.123 10.7845 15.9505C12.6277 12.7993 16.178 11.2082 19.7372 11.1926Z" fill="url(#paint0_radial_6761_11539)"/>
<path d="M19.7372 11.1926C14.5139 11.8975 10.3681 15.6038 10.7907 21.1155C11.1396 25.2769 14.3006 28.3507 18.398 28.8761C20.7589 29.1841 23.2914 28.9063 25.4577 27.9698C33.205 24.68 33.8325 13.2122 27.7764 7.99832C25.3288 5.85339 22.147 5.1636 18.9562 5.40805C14.0926 5.63872 9.36583 7.68143 6.40311 11.6282C0.229207 19.7323 2.97548 32.6761 12.6583 36.6162C16.87 38.3847 22.1505 38.5438 26.4991 37.1865C32.9881 35.1913 37.4428 29.4667 38.7197 22.9057C39.3891 19.5866 39.274 16.1234 38.3962 12.8313C38.7358 13.622 39.0166 14.4411 39.242 15.2776C41.0811 22.0959 39.1429 29.921 33.9725 34.8149C30.7169 37.9536 26.2666 39.655 21.7914 39.9381C16.3953 40.3212 10.7547 38.9483 6.71156 35.2046C-2.06062 27.2351 -0.695256 11.6513 9.74228 5.75028C12.4939 4.15425 15.682 3.3409 18.8322 3.17778C20.6683 3.07289 22.5185 3.17645 24.2972 3.69513C32.8499 6.05562 36.2793 16.6532 32.2792 24.176C29.756 28.9525 24.7444 31.1312 19.4931 30.8161C16.2455 30.6663 12.985 29.1623 11.1428 26.4134C9.03649 23.3671 8.8756 19.123 10.7845 15.9505C12.6277 12.7993 16.178 11.2082 19.7372 11.1926Z" fill="url(#paint1_radial_6761_11539)"/>
<path d="M19.7372 11.1926C14.5139 11.8975 10.3681 15.6038 10.7907 21.1155C11.1396 25.2769 14.3006 28.3507 18.398 28.8761C20.7589 29.1841 23.2914 28.9063 25.4577 27.9698C33.205 24.68 33.8325 13.2122 27.7764 7.99832C25.3288 5.85339 22.147 5.1636 18.9562 5.40805C14.0926 5.63872 9.36583 7.68143 6.40311 11.6282C0.229207 19.7323 2.97548 32.6761 12.6583 36.6162C16.87 38.3847 22.1505 38.5438 26.4991 37.1865C32.9881 35.1913 37.4428 29.4667 38.7197 22.9057C39.3891 19.5866 39.274 16.1234 38.3962 12.8313C38.7358 13.622 39.0166 14.4411 39.242 15.2776C41.0811 22.0959 39.1429 29.921 33.9725 34.8149C30.7169 37.9536 26.2666 39.655 21.7914 39.9381C16.3953 40.3212 10.7547 38.9483 6.71156 35.2046C-2.06062 27.2351 -0.695256 11.6513 9.74228 5.75028C12.4939 4.15425 15.682 3.3409 18.8322 3.17778C20.6683 3.07289 22.5185 3.17645 24.2972 3.69513C32.8499 6.05562 36.2793 16.6532 32.2792 24.176C29.756 28.9525 24.7444 31.1312 19.4931 30.8161C16.2455 30.6663 12.985 29.1623 11.1428 26.4134C9.03649 23.3671 8.8756 19.123 10.7845 15.9505C12.6277 12.7993 16.178 11.2082 19.7372 11.1926Z" fill="url(#paint2_radial_6761_11539)"/>
<path d="M20.254 28.9978C23.719 28.4747 26.9253 26.7756 28.7022 23.6831C32.1263 17.6918 29.4222 9.45656 22.1288 8.46988C21.5879 8.38943 21.0398 8.35032 20.4918 8.34454C16.6144 8.3041 12.6255 9.47567 9.86984 12.2482C5.92265 16.1216 5.02263 22.5657 7.45379 27.4796C9.40717 31.585 13.4499 34.0779 17.8993 34.6224C21.243 35.0846 24.719 34.5704 27.7369 33.033C30.7831 31.5103 33.3396 29.0698 35.1486 26.1933C37.0042 23.2542 38.0642 19.8457 38.3442 16.3829C38.4402 15.2038 38.4477 14.0184 38.3944 12.8326C38.534 13.4135 38.646 14.0011 38.7326 14.5953C39.7291 21.3226 37.0446 28.3809 31.7058 32.6344C28.3609 35.3411 24.0635 36.8687 19.75 36.7718C16.5233 36.7269 13.2512 35.9451 10.5241 34.1531C3.21326 29.4561 1.73946 18.8803 7.02578 12.1077C10.4227 7.69875 16.074 5.89383 21.4852 6.32228C25.8626 6.67117 29.5965 9.28945 31.1445 13.4446C33.9748 21.1968 28.7258 29.4014 20.2523 28.9983H20.2527L20.254 28.9978Z" fill="#ADC9FA"/>
<path d="M20.254 28.9978C23.719 28.4747 26.9253 26.7756 28.7022 23.6831C32.1263 17.6918 29.4222 9.45656 22.1288 8.46988C21.5879 8.38943 21.0398 8.35032 20.4918 8.34454C16.6144 8.3041 12.6255 9.47567 9.86984 12.2482C5.92265 16.1216 5.02263 22.5657 7.45379 27.4796C9.40717 31.585 13.4499 34.0779 17.8993 34.6224C21.243 35.0846 24.719 34.5704 27.7369 33.033C30.7831 31.5103 33.3396 29.0698 35.1486 26.1933C37.0042 23.2542 38.0642 19.8457 38.3442 16.3829C38.4402 15.2038 38.4477 14.0184 38.3944 12.8326C38.534 13.4135 38.646 14.0011 38.7326 14.5953C39.7291 21.3226 37.0446 28.3809 31.7058 32.6344C28.3609 35.3411 24.0635 36.8687 19.75 36.7718C16.5233 36.7269 13.2512 35.9451 10.5241 34.1531C3.21326 29.4561 1.73946 18.8803 7.02578 12.1077C10.4227 7.69875 16.074 5.89383 21.4852 6.32228C25.8626 6.67117 29.5965 9.28945 31.1445 13.4446C33.9748 21.1968 28.7258 29.4014 20.2523 28.9983H20.2527L20.254 28.9978Z" fill="url(#paint3_radial_6761_11539)"/>
<path d="M20.254 28.9978C23.719 28.4747 26.9253 26.7756 28.7022 23.6831C32.1263 17.6918 29.4222 9.45656 22.1288 8.46988C21.5879 8.38943 21.0398 8.35032 20.4918 8.34454C16.6144 8.3041 12.6255 9.47567 9.86984 12.2482C5.92265 16.1216 5.02263 22.5657 7.45379 27.4796C9.40717 31.585 13.4499 34.0779 17.8993 34.6224C21.243 35.0846 24.719 34.5704 27.7369 33.033C30.7831 31.5103 33.3396 29.0698 35.1486 26.1933C37.0042 23.2542 38.0642 19.8457 38.3442 16.3829C38.4402 15.2038 38.4477 14.0184 38.3944 12.8326C38.534 13.4135 38.646 14.0011 38.7326 14.5953C39.7291 21.3226 37.0446 28.3809 31.7058 32.6344C28.3609 35.3411 24.0635 36.8687 19.75 36.7718C16.5233 36.7269 13.2512 35.9451 10.5241 34.1531C3.21326 29.4561 1.73946 18.8803 7.02578 12.1077C10.4227 7.69875 16.074 5.89383 21.4852 6.32228C25.8626 6.67117 29.5965 9.28945 31.1445 13.4446C33.9748 21.1968 28.7258 29.4014 20.2523 28.9983H20.2527L20.254 28.9978Z" fill="url(#paint4_radial_6761_11539)"/>
<path d="M20.254 28.9978C23.719 28.4747 26.9253 26.7756 28.7022 23.6831C32.1263 17.6918 29.4222 9.45656 22.1288 8.46988C21.5879 8.38943 21.0398 8.35032 20.4918 8.34454C16.6144 8.3041 12.6255 9.47567 9.86984 12.2482C5.92265 16.1216 5.02263 22.5657 7.45379 27.4796C9.40717 31.585 13.4499 34.0779 17.8993 34.6224C21.243 35.0846 24.719 34.5704 27.7369 33.033C30.7831 31.5103 33.3396 29.0698 35.1486 26.1933C37.0042 23.2542 38.0642 19.8457 38.3442 16.3829C38.4402 15.2038 38.4477 14.0184 38.3944 12.8326C38.534 13.4135 38.646 14.0011 38.7326 14.5953C39.7291 21.3226 37.0446 28.3809 31.7058 32.6344C28.3609 35.3411 24.0635 36.8687 19.75 36.7718C16.5233 36.7269 13.2512 35.9451 10.5241 34.1531C3.21326 29.4561 1.73946 18.8803 7.02578 12.1077C10.4227 7.69875 16.074 5.89383 21.4852 6.32228C25.8626 6.67117 29.5965 9.28945 31.1445 13.4446C33.9748 21.1968 28.7258 29.4014 20.2523 28.9983H20.2527L20.254 28.9978Z" fill="url(#paint5_radial_6761_11539)" fill-opacity="0.2"/>
<path d="M28.8365 23.4542C29.8863 20.6088 30.0476 17.355 28.1151 14.8527C26.7853 13.0993 24.7386 12.0046 22.6186 11.5166C19.1296 10.7095 15.166 11.438 12.489 13.8945C9.39386 16.7185 8.37117 21.8488 10.1312 25.6409C11.9188 29.5765 16.2984 31.8561 20.5252 31.9117C24.8835 32.0366 29.0276 29.7317 31.5019 26.1814C34.7144 21.5368 36.3708 14.9634 33.7383 9.70237C31.1107 4.39427 24.8928 1.7351 19.1572 2.048C12.4081 2.32889 6.27336 6.52853 3.19018 12.4851C1.82838 15.138 1.23548 18.1434 1.31015 21.1257C1.41904 24.9476 2.44972 28.741 4.10531 32.189C3.19685 30.9152 2.47284 29.5148 1.85638 28.0761C0.619021 25.1507 -0.0832154 21.9804 0.00789755 18.7941C0.134567 13.7611 2.35772 9.35081 5.94446 5.87563C10.5966 1.2791 17.4874 -0.908503 23.9359 0.352411C28.8054 1.24843 33.4392 4.21338 35.6926 8.7188C38.0206 13.2144 37.5504 18.6199 35.6766 23.1769C32.7957 30.5179 26.0062 35.334 17.9838 33.8193C10.9326 32.449 5.97335 26.2871 7.60227 19.0234C8.11695 16.5567 9.34764 14.2007 11.2575 12.5273C15.022 9.1837 20.8634 8.73791 25.2711 11.0295C30.1836 13.6273 31.4503 18.6479 28.836 23.4542H28.8365Z" fill="#ADC9FA"/>
<path d="M28.8365 23.4542C29.8863 20.6088 30.0476 17.355 28.1151 14.8527C26.7853 13.0993 24.7386 12.0046 22.6186 11.5166C19.1296 10.7095 15.166 11.438 12.489 13.8945C9.39386 16.7185 8.37117 21.8488 10.1312 25.6409C11.9188 29.5765 16.2984 31.8561 20.5252 31.9117C24.8835 32.0366 29.0276 29.7317 31.5019 26.1814C34.7144 21.5368 36.3708 14.9634 33.7383 9.70237C31.1107 4.39427 24.8928 1.7351 19.1572 2.048C12.4081 2.32889 6.27336 6.52853 3.19018 12.4851C1.82838 15.138 1.23548 18.1434 1.31015 21.1257C1.41904 24.9476 2.44972 28.741 4.10531 32.189C3.19685 30.9152 2.47284 29.5148 1.85638 28.0761C0.619021 25.1507 -0.0832154 21.9804 0.00789755 18.7941C0.134567 13.7611 2.35772 9.35081 5.94446 5.87563C10.5966 1.2791 17.4874 -0.908503 23.9359 0.352411C28.8054 1.24843 33.4392 4.21338 35.6926 8.7188C38.0206 13.2144 37.5504 18.6199 35.6766 23.1769C32.7957 30.5179 26.0062 35.334 17.9838 33.8193C10.9326 32.449 5.97335 26.2871 7.60227 19.0234C8.11695 16.5567 9.34764 14.2007 11.2575 12.5273C15.022 9.1837 20.8634 8.73791 25.2711 11.0295C30.1836 13.6273 31.4503 18.6479 28.836 23.4542H28.8365Z" fill="url(#paint6_radial_6761_11539)"/>
<path d="M28.8365 23.4542C29.8863 20.6088 30.0476 17.355 28.1151 14.8527C26.7853 13.0993 24.7386 12.0046 22.6186 11.5166C19.1296 10.7095 15.166 11.438 12.489 13.8945C9.39386 16.7185 8.37117 21.8488 10.1312 25.6409C11.9188 29.5765 16.2984 31.8561 20.5252 31.9117C24.8835 32.0366 29.0276 29.7317 31.5019 26.1814C34.7144 21.5368 36.3708 14.9634 33.7383 9.70237C31.1107 4.39427 24.8928 1.7351 19.1572 2.048C12.4081 2.32889 6.27336 6.52853 3.19018 12.4851C1.82838 15.138 1.23548 18.1434 1.31015 21.1257C1.41904 24.9476 2.44972 28.741 4.10531 32.189C3.19685 30.9152 2.47284 29.5148 1.85638 28.0761C0.619021 25.1507 -0.0832154 21.9804 0.00789755 18.7941C0.134567 13.7611 2.35772 9.35081 5.94446 5.87563C10.5966 1.2791 17.4874 -0.908503 23.9359 0.352411C28.8054 1.24843 33.4392 4.21338 35.6926 8.7188C38.0206 13.2144 37.5504 18.6199 35.6766 23.1769C32.7957 30.5179 26.0062 35.334 17.9838 33.8193C10.9326 32.449 5.97335 26.2871 7.60227 19.0234C8.11695 16.5567 9.34764 14.2007 11.2575 12.5273C15.022 9.1837 20.8634 8.73791 25.2711 11.0295C30.1836 13.6273 31.4507 18.6479 28.8365 23.4542Z" fill="url(#paint7_radial_6761_11539)"/>
<defs>
<radialGradient id="paint0_radial_6761_11539" cx="0" cy="0" r="1" gradientUnits="userSpaceOnUse" gradientTransform="translate(19.6843 13.7877) rotate(44.8) scale(33.8329 35.7898)">
<stop offset="0.27" stop-color="#8856BE"/>
<stop offset="0.83" stop-color="#8856BE" stop-opacity="0"/>
</radialGradient>
<radialGradient id="paint1_radial_6761_11539" cx="0" cy="0" r="1" gradientUnits="userSpaceOnUse" gradientTransform="translate(0.00563013 16.6005) rotate(-121.47) scale(26.1285 43.8426)">
<stop stop-color="#ADC9FA"/>
<stop offset="1" stop-color="#ADC9FA" stop-opacity="0"/>
</radialGradient>
<radialGradient id="paint2_radial_6761_11539" cx="0" cy="0" r="1" gradientUnits="userSpaceOnUse" gradientTransform="translate(13.439 18.1182) rotate(77.12) scale(17.5267 15.2182)">
<stop stop-color="#8856BE"/>
<stop offset="1" stop-color="#8856BE" stop-opacity="0"/>
</radialGradient>
<radialGradient id="paint3_radial_6761_11539" cx="0" cy="0" r="1" gradientUnits="userSpaceOnUse" gradientTransform="translate(12.0938 26.1094) rotate(11.77) scale(26.9563 30.9794)">
<stop offset="0.44" stop-color="#8856BE"/>
<stop offset="0.97" stop-color="#8856BE" stop-opacity="0"/>
</radialGradient>
<radialGradient id="paint4_radial_6761_11539" cx="0" cy="0" r="1" gradientUnits="userSpaceOnUse" gradientTransform="translate(-3.68227 38.4855) rotate(-30.96) scale(44.6737 143.93)">
<stop stop-color="#ADC9FA"/>
<stop offset="1" stop-color="#ADC9FA" stop-opacity="0"/>
</radialGradient>
<radialGradient id="paint5_radial_6761_11539" cx="0" cy="0" r="1" gradientUnits="userSpaceOnUse" gradientTransform="translate(14.6513 2.36764) rotate(66.4) scale(10.5872 12.1673)">
<stop stop-color="#ADC9FA"/>
<stop offset="1" stop-color="#ADC9FA" stop-opacity="0"/>
</radialGradient>
<radialGradient id="paint6_radial_6761_11539" cx="0" cy="0" r="1" gradientUnits="userSpaceOnUse" gradientTransform="translate(15.8079 14.4886) rotate(101.04) scale(31.1376 23.7352)">
<stop stop-color="#8856BE"/>
<stop offset="0.88" stop-color="#8856BE" stop-opacity="0"/>
</radialGradient>
<radialGradient id="paint7_radial_6761_11539" cx="0" cy="0" r="1" gradientUnits="userSpaceOnUse" gradientTransform="translate(19.9628 20.5963) rotate(84.73) scale(23.0769 18.7545)">
<stop offset="0.4" stop-color="#8856BE"/>
<stop offset="1" stop-color="#8856BE" stop-opacity="0"/>
</radialGradient>
</defs>
</svg>
